<svg width="96" height="96" viewBox="0 0 96 96" fill="none" xmlns="http://www.w3.org/2000/svg">
<g clip-path="url(#clip0)">
<path d="M88.6612 46.5689C85.8037 41.3461 82.963 37.971 81.9397 36.8284V29.1198L95.2149 18.2193C95.5309 17.9596 95.7181 17.575 95.7268 17.1659C95.7358 16.7568 95.5655 16.3644 95.2609 16.0914L85.2166 7.0885C84.64 6.5717 83.7533 6.62032 83.2363 7.19676C82.7193 7.7734 82.768 8.66003 83.3446 9.17702L92.1719 17.0891L81.9402 25.4904V19.7555C81.9402 18.9811 81.3125 18.3532 80.5379 18.3532C79.7633 18.3532 79.1356 18.9811 79.1356 19.7555L79.1348 36.1901C69.1221 37.8106 58.9884 37.8104 48.9757 36.1897V19.7555C48.9757 18.9811 48.348 18.3532 47.5734 18.3532C46.7988 18.3532 46.1711 18.9811 46.1711 19.7555V25.491L35.9387 17.0891L46.8549 7.30334C48.4608 5.86326 50.5347 5.26475 52.5305 5.50183C52.9415 7.26725 53.8853 10.9703 55.3348 14.6593C57.7164 20.7213 60.4945 24.3452 63.5916 25.4302C63.7417 25.4828 63.8984 25.5091 64.0551 25.5091C64.2118 25.5091 64.3686 25.4828 64.5186 25.4302C67.6157 24.3452 70.3939 20.7213 72.7762 14.6595C74.2232 10.9774 75.1659 7.28408 75.5786 5.51436C76.8141 5.36665 78.09 5.53194 79.2762 6.03976C79.9888 6.34472 80.8126 6.01433 81.1173 5.30252C81.4223 4.59051 81.0921 3.76633 80.3803 3.46156C76.7778 1.9192 72.578 2.62765 69.6797 5.26568L68.3856 6.44363C65.9166 8.69182 62.1945 8.69182 59.7264 6.44363L58.4326 5.26568C54.6115 1.78719 48.8291 1.76569 44.9825 5.21539L32.8495 16.0917C32.5447 16.3647 32.3746 16.7574 32.3835 17.1663C32.3923 17.5754 32.5795 17.96 32.8955 18.2197L46.1707 29.1202V36.8277C45.2514 37.8508 42.8887 40.6448 40.3706 44.9291C38.2379 43.7927 35.9824 42.6707 33.6978 41.5348C31.7013 40.542 29.6903 39.542 27.76 38.5265C29.6466 36.1641 31.1018 33.49 31.7396 30.355C32.7141 25.5641 31.2886 21.2846 27.8286 18.6137C24.5485 16.0816 20.0314 15.5172 16.5879 17.2091C14.742 18.1159 11.6455 20.4696 11.6455 26.0422C11.6455 29.5697 13.8857 32.9044 18.4944 36.237C19.936 37.2794 21.5567 38.2891 23.2818 39.2743C21.1431 41.3779 18.6887 43.2503 16.37 45.0187C11.378 48.8263 6.6417 52.4416 6.51923 57.3127C3.46517 58.0449 1.10872 60.5917 0.698498 63.7994C-0.234135 71.1027 -0.234135 78.5088 0.698498 85.8124C1.16968 89.4949 4.20709 92.3092 7.92117 92.5039C15.368 92.8922 22.8672 93.0863 30.3666 93.0863C37.8658 93.0863 45.3656 92.8921 52.8126 92.5039C56.5276 92.3091 59.5641 89.4945 60.0331 85.8124C60.3124 83.6289 60.5063 81.4361 60.6187 79.2397C61.7596 79.2739 62.9101 79.2922 64.0551 79.2922C82.3619 79.2922 94.3058 75.0088 94.8054 74.8265C95.3587 74.6244 95.7268 74.0982 95.7268 73.5093C95.7272 61.9164 91.8849 52.4603 88.6612 46.5689ZM57.8383 8.51644C61.3819 11.7453 66.7285 11.7453 70.2743 8.51681L71.5681 7.33905C71.831 7.09972 72.1091 6.88265 72.3991 6.68782C71.912 8.5456 71.1648 11.0931 70.1666 13.6332C67.829 19.5814 65.6219 21.8104 64.0557 22.5865C62.4895 21.8104 60.2825 19.5814 57.9455 13.6332C56.9474 11.0928 56.2001 8.54355 55.713 6.68501C56.0017 6.88003 56.2799 7.09767 56.545 7.33886L57.8383 8.51644ZM14.4509 26.0414C14.4509 22.9941 15.6176 20.8101 17.8253 19.7254C18.7485 19.2718 19.8036 19.0517 20.8896 19.0517C22.7044 19.0517 24.6048 19.6667 26.1156 20.8329C27.6325 22.0037 30.0232 24.7251 28.992 29.795C28.4268 32.5742 27.0439 34.992 25.2392 37.1596C19.1784 33.7632 14.4509 30.1573 14.4509 26.0414ZM8.06738 59.9096C10.5671 59.7798 13.0677 59.6714 15.4998 59.5873C16.2739 59.5603 16.8795 58.9113 16.8526 58.1373C16.8257 57.363 16.1816 56.7598 15.4026 56.7843C13.4192 56.8529 11.3903 56.9384 9.35377 57.0375C9.71501 53.6244 13.6209 50.6424 18.0715 47.248C20.686 45.2537 23.4614 43.1368 25.8471 40.6854C27.996 41.8306 30.2397 42.9464 32.4495 44.0453C34.6614 45.1453 36.8913 46.2542 39.0062 47.3826C37.617 50.0222 36.2507 53.0938 35.1199 56.5543C30.4025 56.5018 25.693 56.5222 21.0186 56.6248C20.2442 56.6418 19.6303 57.2832 19.6473 58.0576C19.6643 58.8321 20.3025 59.4523 21.0799 59.4287C31.5337 59.1993 42.1612 59.3612 52.6672 59.9096C55.0261 60.0319 56.9541 61.8167 57.2518 64.1543C57.4487 65.6933 57.6001 67.2372 57.7112 68.7836C57.5979 70.3355 57.444 71.8762 57.2518 73.3668C56.9543 75.7025 55.0257 77.4864 52.6649 77.6089C49.4897 77.7747 46.2999 77.9039 43.1552 77.9983C43.2225 76.0181 43.1789 74.0296 43.0202 72.0606C42.8057 69.3973 40.6452 67.2794 37.995 67.1345C33.4573 66.8862 28.8559 66.886 24.3193 67.1345C21.6689 67.2794 19.5086 69.3973 19.2939 72.0606C19.1341 74.0446 19.0909 76.0484 19.1604 78.0438C15.4675 77.9454 11.7444 77.8015 8.06738 77.6089C5.70738 77.4866 3.77854 75.7027 3.48125 73.3662C3.29316 71.8932 3.1389 70.3576 3.02148 68.8005C3.13254 67.2484 3.28399 65.6989 3.48125 64.1543C3.78004 61.8171 5.70888 60.0319 8.06738 59.9096ZM41.4741 48.7431C46.017 51.3428 49.6877 54.0623 50.9212 57.019C46.6458 56.8148 42.3545 56.6732 38.0646 56.5964C39.0756 53.6689 40.2651 51.0369 41.4741 48.7431ZM40.2245 80.1691C40.1221 81.4408 39.0976 82.4513 37.8417 82.5202C37.8415 82.5202 37.8415 82.5202 37.8415 82.5202C33.4059 82.7628 28.9082 82.7628 24.4722 82.5202C23.2163 82.4513 22.1919 81.4408 22.0894 80.1691C21.8787 77.5537 21.8787 74.9013 22.0894 72.2859C22.1919 71.0143 23.2163 70.0036 24.4724 69.9348C26.6901 69.8135 28.9236 69.7527 31.157 69.7527C33.3904 69.7527 35.6238 69.8135 37.8417 69.9348C39.0976 70.0036 40.1221 71.0143 40.2245 72.2859C40.4352 74.9013 40.4352 77.5537 40.2245 80.1691ZM52.6668 89.7024C37.8698 90.4739 22.8648 90.4739 8.06832 89.7024C5.70944 89.5787 3.78004 87.7929 3.48125 85.4562C3.172 83.0341 2.97118 80.6003 2.87396 78.1629C4.18017 79.4725 5.95587 80.3079 7.92154 80.4098C11.7098 80.6083 15.5477 80.7557 19.3517 80.8546C19.7629 83.298 21.8235 85.1842 24.3191 85.3207C26.5879 85.4448 28.8725 85.5069 31.157 85.5069C33.4414 85.5069 35.7263 85.4448 37.9947 85.3207C40.5056 85.1833 42.5756 83.2748 42.969 80.8099C46.2214 80.7143 49.5241 80.5816 52.8104 80.4098C54.7772 80.3079 56.5536 79.4719 57.86 78.1619C57.7626 80.5997 57.5614 83.0342 57.2516 85.4568C56.954 87.7932 55.0257 89.5787 52.6668 89.7024ZM88.3202 73.7544C88.0317 69.5386 87.4986 65.3382 86.7301 61.2446C86.5873 60.4834 85.8551 59.9825 85.0932 60.1252C84.332 60.268 83.8307 61.001 83.9738 61.7622C84.7477 65.8851 85.2744 70.1203 85.5481 74.3686C84.4683 74.5898 83.244 74.8196 81.889 75.0432C81.7194 69.4036 81.1175 63.7882 80.0933 58.3274C79.9504 57.5662 79.2175 57.0653 78.4565 57.2076C77.6953 57.3505 77.194 58.0832 77.3369 58.8444C78.3546 64.2717 78.9453 69.8569 79.0961 75.465C74.9148 76.0388 69.8085 76.4872 64.0553 76.4872C62.943 76.4872 61.8254 76.4696 60.717 76.4365C60.7963 72.2161 60.5695 67.9909 60.0334 63.7998C59.6129 60.4976 57.129 57.8964 53.9437 57.2534C52.9142 52.9683 48.5146 49.5261 42.8439 46.2899C45.0851 42.4964 47.1821 39.9375 48.0977 38.8876C53.3943 39.769 58.7252 40.211 64.056 40.211C69.3865 40.211 74.717 39.7692 80.0134 38.8878C81.0657 40.0911 83.6705 43.2727 86.2464 47.9996C89.198 53.4156 92.699 62 92.9119 72.5009C91.9999 72.7887 90.436 73.2492 88.3202 73.7544Z" fill="black"/>
<path d="M36.7847 72.0618C34.9115 71.9741 33.0184 71.9298 31.1575 71.9298C29.2963 71.9298 27.403 71.9741 25.5299 72.0618C24.8145 72.0953 24.2394 72.6624 24.1956 73.3773C24.0806 75.2684 24.0806 77.1864 24.1956 79.0777C24.2392 79.7927 24.8145 80.3598 25.5299 80.3932C27.4015 80.4807 29.295 80.5252 31.1575 80.5252C33.0197 80.5252 34.913 80.4809 36.7847 80.3932C37.5 80.3598 38.0752 79.7927 38.1189 79.0777C38.2339 77.1864 38.2339 75.2686 38.1189 73.3773C38.0754 72.6625 37.5002 72.0953 36.7847 72.0618ZM35.3781 77.6445C32.5594 77.7457 29.7551 77.7457 26.9369 77.6445C26.9068 76.7012 26.9068 75.754 26.9369 74.8107C29.757 74.7094 32.5579 74.7094 35.3781 74.8107C35.4082 75.754 35.4082 76.7012 35.3781 77.6445Z" fill="black"/>
</g>
<defs>
<clipPath id="clip0">
<rect width="95.7276" height="95.7276" fill="white"/>
</clipPath>
</defs>
</svg>
