<svg width="96" height="96" viewBox="0 0 96 96" fill="none" xmlns="http://www.w3.org/2000/svg">
<g clip-path="url(#clip0)">
<path d="M94.3839 47.5736L88.8605 22.7147C87.9724 18.7338 84.5056 15.9547 80.4314 15.9547C75.6716 15.9547 71.7957 19.8285 71.7957 24.5883V25.9263C71.7957 27.0286 72.6878 27.9207 73.7901 27.9207C74.8925 27.9207 75.7845 27.0286 75.7845 25.9263V24.5883C75.7845 22.0273 77.8684 19.9433 80.4314 19.9433C82.6244 19.9433 84.4901 21.4409 84.9654 23.5813L90.4888 48.4384C91.1744 51.5273 91.5794 54.6784 91.7002 57.8354H91.5375C90.5202 47.7858 82.1091 39.8864 71.7957 39.8864C62.7786 39.8864 55.2279 45.9414 52.7702 54.1704C51.5499 52.8839 49.9416 51.8524 47.8638 51.8524C45.786 51.8524 44.1777 52.8839 42.9574 54.1704C40.4997 45.9414 32.949 39.8864 23.9319 39.8864C13.6188 39.8864 5.20762 47.7858 4.19014 57.8354H4.02748C4.14826 54.6784 4.55342 51.5271 5.23884 48.4384L10.7623 23.5832C11.2375 21.4409 13.1033 19.9431 15.2962 19.9431C17.8592 19.9431 19.9431 22.0271 19.9431 24.5882V25.9261C19.9431 27.0285 20.8352 27.9205 21.9375 27.9205C23.0399 27.9205 23.9319 27.0285 23.9319 25.9261V24.5882C23.9319 19.8283 20.0562 15.9545 15.2962 15.9545C11.2218 15.9545 7.75525 18.7338 6.86715 22.7166L1.34393 47.5736C0.451902 51.5974 0 55.7204 0 59.8298C0 60.9321 0.892025 61.8241 1.99439 61.8241H4.19033C5.20762 71.8737 13.6188 79.7731 23.9321 79.7731C34.7583 79.7731 43.5546 71.0882 43.8251 60.3262C44.2258 59.2111 45.8195 55.8412 47.864 55.8412C49.856 55.8412 51.4295 59.0234 51.9023 60.3202C52.1697 71.085 60.9679 79.7731 71.7959 79.7731C82.1091 79.7731 90.5202 71.8737 91.5377 61.8241H93.7336C94.836 61.8241 95.728 60.9321 95.728 59.8298C95.7276 55.7204 95.2757 51.5974 94.3839 47.5736ZM23.9319 75.7843C15.1326 75.7843 7.97737 68.627 7.97737 59.8298C7.97737 51.0325 15.1328 43.8752 23.9319 43.8752C32.731 43.8752 39.8865 51.0325 39.8865 59.8298C39.8865 68.627 32.7312 75.7843 23.9319 75.7843ZM71.7957 75.7843C62.9965 75.7843 55.8412 68.627 55.8412 59.8298C55.8412 51.0325 62.9966 43.8752 71.7957 43.8752C80.5948 43.8752 87.7503 51.0325 87.7503 59.8298C87.7503 68.627 80.595 75.7843 71.7957 75.7843Z" fill="black"/>
</g>
<defs>
<clipPath id="clip0">
<rect width="95.7276" height="95.7276" fill="white"/>
</clipPath>
</defs>
</svg>
