<svg width="90" height="70" viewBox="0 0 90 70" fill="none" xmlns="http://www.w3.org/2000/svg">
<path d="M88.4393 8.24241C88.0426 8.24241 87.6622 8.4 87.3817 8.6805C87.1012 8.96101 86.9436 9.34146 86.9436 9.73815V63.585H78.8217C69.1963 63.5858 59.6021 64.6787 50.2231 66.8427C49.6348 66.9773 49.0195 66.9302 48.4586 66.7074C47.8977 66.4846 47.4176 66.0968 47.082 65.5952C52.4223 62.3263 58.5616 60.5954 64.823 60.5935H82.4564C82.8531 60.5935 83.2335 60.4359 83.514 60.1554C83.7945 59.8749 83.9521 59.4944 83.9521 59.0977V48.6275C83.9521 48.2308 83.7945 47.8504 83.514 47.5699C83.2335 47.2894 82.8531 47.1318 82.4564 47.1318C82.0597 47.1318 81.6792 47.2894 81.3987 47.5699C81.1182 47.8504 80.9606 48.2308 80.9606 48.6275V57.602H64.823C58.4217 57.5959 52.1284 59.2513 46.5585 62.4063V21.7041C46.5585 21.3074 46.4009 20.927 46.1204 20.6465C45.8399 20.366 45.4595 20.2084 45.0628 20.2084C44.6661 20.2084 44.2856 20.366 44.0051 20.6465C43.7246 20.927 43.567 21.3074 43.567 21.7041V62.4048C37.9971 59.2501 31.7037 57.5952 25.3025 57.602H9.1649V3.75518H32.1994C35.2149 3.75716 38.1063 4.95648 40.238 7.08952C42.3696 9.22256 43.567 12.1147 43.567 15.1303C43.567 15.527 43.7246 15.9075 44.0051 16.188C44.2856 16.4685 44.6661 16.6261 45.0628 16.6261C45.4595 16.6261 45.8399 16.4685 46.1204 16.188C46.4009 15.9075 46.5585 15.527 46.5585 15.1303C46.5585 12.1147 47.7559 9.22256 49.8876 7.08952C52.0192 4.95648 54.9106 3.75716 57.9262 3.75518H80.9606V42.6445C80.9606 43.0412 81.1182 43.4217 81.3987 43.7022C81.6792 43.9827 82.0597 44.1403 82.4564 44.1403C82.8531 44.1403 83.2335 43.9827 83.514 43.7022C83.7945 43.4217 83.9521 43.0412 83.9521 42.6445V2.25943C83.9521 1.86274 83.7945 1.48229 83.514 1.20178C83.2335 0.921274 82.8531 0.763687 82.4564 0.763687H57.9262C55.2526 0.765672 52.6325 1.51305 50.3602 2.92187C48.0879 4.33069 46.2534 6.34516 45.0628 8.739C43.8721 6.34516 42.0376 4.33069 39.7653 2.92187C37.493 1.51305 34.873 0.765672 32.1994 0.763687H7.66915C7.27246 0.763687 6.89201 0.921274 6.6115 1.20178C6.33099 1.48229 6.17341 1.86274 6.17341 2.25943V59.0977C6.17341 59.4944 6.33099 59.8749 6.6115 60.1554C6.89201 60.4359 7.27246 60.5935 7.66915 60.5935H25.3025C31.5649 60.5948 37.7053 62.3257 43.0465 65.5952C42.7097 66.0956 42.2295 66.4824 41.669 66.705C41.1085 66.9277 40.4937 66.9756 39.9054 66.8427C30.5255 64.6784 20.9302 63.5854 11.3038 63.585H3.18192V9.73815C3.18192 9.34146 3.02433 8.96101 2.74382 8.6805C2.46332 8.4 2.08287 8.24241 1.68617 8.24241C1.28948 8.24241 0.909029 8.4 0.628523 8.6805C0.348017 8.96101 0.19043 9.34146 0.19043 9.73815V65.0807C0.19043 65.4774 0.348017 65.8578 0.628523 66.1384C0.909029 66.4189 1.28948 66.5764 1.68617 66.5764H11.3038C20.7027 66.5779 30.071 67.6452 39.2294 69.7579C40.2823 70.001 41.3815 69.9529 42.4091 69.6188C43.4368 69.2846 44.3541 68.6771 45.0628 67.8613C45.7712 68.6774 46.6885 69.2851 47.7162 69.6192C48.7439 69.9534 49.8433 70.0013 50.8962 69.7579C60.0546 67.6456 69.4229 66.5783 78.8217 66.5764H88.4393C88.836 66.5764 89.2165 66.4189 89.497 66.1384C89.7775 65.8578 89.9351 65.4774 89.9351 65.0807V9.73815C89.9351 9.34146 89.7775 8.96101 89.497 8.6805C89.2165 8.4 88.836 8.24241 88.4393 8.24241Z" fill="black"/>
<path d="M40.1624 13.6465C37.8055 12.0726 35.0347 11.2329 32.2006 11.2339H15.1491C14.7524 11.2339 14.3719 11.3915 14.0914 11.672C13.8109 11.9525 13.6533 12.3329 13.6533 12.7296C13.6533 13.1263 13.8109 13.5068 14.0914 13.7873C14.3719 14.0678 14.7524 14.2254 15.1491 14.2254H32.2006C34.4464 14.2228 36.6423 14.8876 38.5096 16.1354C38.8397 16.3556 39.2436 16.4356 39.6327 16.3579C40.0218 16.2802 40.364 16.0512 40.5842 15.7211C40.8044 15.3911 40.8844 14.9871 40.8067 14.598C40.729 14.209 40.4999 13.8667 40.1699 13.6465H40.1624Z" fill="black"/>
<path d="M74.9776 11.2339H57.9261C55.0895 11.2316 52.3159 12.0713 49.9568 13.6465C49.7934 13.7555 49.653 13.8957 49.5438 14.0589C49.4345 14.2222 49.3585 14.4054 49.32 14.598C49.2815 14.7907 49.2814 14.989 49.3195 15.1817C49.3577 15.3744 49.4335 15.5577 49.5425 15.7211C49.6515 15.8846 49.7916 16.0249 49.9549 16.1342C50.1182 16.2434 50.3013 16.3195 50.494 16.358C50.6866 16.3964 50.885 16.3966 51.0777 16.3584C51.2704 16.3202 51.4537 16.2445 51.6171 16.1354C53.4846 14.888 55.6804 14.2233 57.9261 14.2254H74.9776C75.3743 14.2254 75.7548 14.0678 76.0353 13.7873C76.3158 13.5068 76.4734 13.1263 76.4734 12.7296C76.4734 12.3329 76.3158 11.9525 76.0353 11.672C75.7548 11.3915 75.3743 11.2339 74.9776 11.2339Z" fill="black"/>
<path d="M40.1624 21.1253C37.8055 19.5513 35.0347 18.7117 32.2006 18.7126H15.1491C14.7524 18.7126 14.3719 18.8702 14.0914 19.1507C13.8109 19.4312 13.6533 19.8117 13.6533 20.2084C13.6533 20.6051 13.8109 20.9855 14.0914 21.266C14.3719 21.5465 14.7524 21.7041 15.1491 21.7041H32.2006C34.4464 21.7015 36.6423 22.3664 38.5096 23.6142C38.8397 23.8343 39.2436 23.9144 39.6327 23.8367C40.0218 23.759 40.364 23.5299 40.5842 23.1998C40.8044 22.8698 40.8844 22.4658 40.8067 22.0767C40.729 21.6877 40.4999 21.3454 40.1699 21.1253H40.1624Z" fill="black"/>
<path d="M74.9776 18.7126H57.9261C55.0895 18.7104 52.3159 19.55 49.9568 21.1253C49.7934 21.2343 49.653 21.3744 49.5438 21.5377C49.4345 21.7009 49.3585 21.8841 49.32 22.0767C49.2815 22.2694 49.2814 22.4677 49.3195 22.6604C49.3577 22.8531 49.4335 23.0364 49.5425 23.1998C49.6515 23.3633 49.7916 23.5036 49.9549 23.6129C50.1182 23.7222 50.3013 23.7982 50.494 23.8367C50.6866 23.8751 50.885 23.8753 51.0777 23.8371C51.2704 23.7989 51.4537 23.7232 51.6171 23.6142C53.4846 22.3668 55.6804 21.702 57.9261 21.7041H74.9776C75.3743 21.7041 75.7548 21.5465 76.0353 21.266C76.3158 20.9855 76.4734 20.6051 76.4734 20.2084C76.4734 19.8117 76.3158 19.4312 76.0353 19.1507C75.7548 18.8702 75.3743 18.7126 74.9776 18.7126Z" fill="black"/>
<path d="M40.1624 28.604C37.8055 27.03 35.0347 26.1904 32.2006 26.1913H15.1491C14.7524 26.1913 14.3719 26.3489 14.0914 26.6294C13.8109 26.9099 13.6533 27.2904 13.6533 27.6871C13.6533 28.0838 13.8109 28.4642 14.0914 28.7447C14.3719 29.0252 14.7524 29.1828 15.1491 29.1828H32.2006C34.4464 29.1803 36.6423 29.8451 38.5096 31.0929C38.8397 31.3131 39.2436 31.3931 39.6327 31.3154C40.0218 31.2377 40.364 31.0086 40.5842 30.6786C40.8044 30.3485 40.8844 29.9445 40.8067 29.5555C40.729 29.1664 40.4999 28.8241 40.1699 28.604H40.1624Z" fill="black"/>
<path d="M74.9776 26.1913H57.9261C55.0895 26.1891 52.3159 27.0288 49.9568 28.604C49.7934 28.713 49.653 28.8531 49.5438 29.0164C49.4345 29.1796 49.3585 29.3628 49.32 29.5555C49.2815 29.7481 49.2814 29.9464 49.3195 30.1391C49.3577 30.3319 49.4335 30.5151 49.5425 30.6786C49.6515 30.842 49.7916 30.9823 49.9549 31.0916C50.1182 31.2009 50.3013 31.2769 50.494 31.3154C50.6866 31.3539 50.885 31.354 51.0777 31.3158C51.2704 31.2777 51.4537 31.2019 51.6171 31.0929C53.4846 29.8455 55.6804 29.1807 57.9261 29.1828H74.9776C75.3743 29.1828 75.7548 29.0252 76.0353 28.7447C76.3158 28.4642 76.4734 28.0838 76.4734 27.6871C76.4734 27.2904 76.3158 26.9099 76.0353 26.6294C75.7548 26.3489 75.3743 26.1913 74.9776 26.1913Z" fill="black"/>
<path d="M40.1624 36.0827C37.8055 34.5087 35.0347 33.6691 32.2005 33.6701H15.1491C14.7524 33.6701 14.3719 33.8276 14.0914 34.1082C13.8109 34.3887 13.6533 34.7691 13.6533 35.1658C13.6533 35.5625 13.8109 35.943 14.0914 36.2235C14.3719 36.504 14.7524 36.6615 15.1491 36.6615H32.2005C34.4464 36.659 36.6423 37.3238 38.5096 38.5716C38.673 38.6806 38.8563 38.7564 39.049 38.7946C39.2417 38.8327 39.4401 38.8326 39.6327 38.7941C39.8253 38.7556 40.0085 38.6796 40.1718 38.5703C40.335 38.4611 40.4752 38.3207 40.5842 38.1573C40.6932 37.9939 40.769 37.8106 40.8071 37.6179C40.8453 37.4252 40.8452 37.2268 40.8067 37.0342C40.7682 36.8415 40.6922 36.6584 40.5829 36.4951C40.4736 36.3318 40.3333 36.1917 40.1699 36.0827H40.1624Z" fill="black"/>
<path d="M74.9776 33.6701H57.9261C55.0895 33.6678 52.3159 34.5075 49.9568 36.0827C49.6268 36.3029 49.3977 36.6451 49.32 37.0342C49.2423 37.4232 49.3223 37.8272 49.5425 38.1573C49.7627 38.4873 50.1049 38.7164 50.494 38.7941C50.883 38.8718 51.287 38.7918 51.6171 38.5716C53.4846 37.3242 55.6804 36.6594 57.9261 36.6615H74.9776C75.3743 36.6615 75.7548 36.504 76.0353 36.2235C76.3158 35.943 76.4734 35.5625 76.4734 35.1658C76.4734 34.7691 76.3158 34.3887 76.0353 34.1082C75.7548 33.8276 75.3743 33.6701 74.9776 33.6701Z" fill="black"/>
<path d="M40.1624 43.5614C37.8055 41.9874 35.0347 41.1478 32.2006 41.1488H15.1491C14.7524 41.1488 14.3719 41.3064 14.0914 41.5869C13.8109 41.8674 13.6533 42.2478 13.6533 42.6445C13.6533 43.0412 13.8109 43.4217 14.0914 43.7022C14.3719 43.9827 14.7524 44.1403 15.1491 44.1403H32.2006C34.4464 44.1377 36.6423 44.8025 38.5096 46.0503C38.8397 46.2705 39.2436 46.3506 39.6327 46.2729C40.0218 46.1951 40.364 45.9661 40.5842 45.636C40.8044 45.306 40.8844 44.902 40.8067 44.5129C40.729 44.1238 40.4999 43.7816 40.1699 43.5614H40.1624Z" fill="black"/>
<path d="M74.9776 41.1488H57.9261C55.0895 41.1465 52.3159 41.9862 49.9568 43.5614C49.7934 43.6704 49.653 43.8106 49.5438 43.9738C49.4345 44.1371 49.3585 44.3203 49.32 44.5129C49.2815 44.7056 49.2814 44.9039 49.3195 45.0966C49.3577 45.2893 49.4335 45.4726 49.5425 45.636C49.7627 45.9661 50.1049 46.1952 50.494 46.2729C50.6866 46.3113 50.885 46.3115 51.0777 46.2733C51.2704 46.2351 51.4537 46.1594 51.6171 46.0504C53.4846 44.8029 55.6804 44.1382 57.9261 44.1403H74.9776C75.3743 44.1403 75.7548 43.9827 76.0353 43.7022C76.3158 43.4217 76.4734 43.0412 76.4734 42.6445C76.4734 42.2478 76.3158 41.8674 76.0353 41.5869C75.7548 41.3064 75.3743 41.1488 74.9776 41.1488Z" fill="black"/>
<path d="M32.2005 48.6275H15.1491C14.7524 48.6275 14.3719 48.7851 14.0914 49.0656C13.8109 49.3461 13.6533 49.7266 13.6533 50.1232C13.6533 50.5199 13.8109 50.9004 14.0914 51.1809C14.3719 51.4614 14.7524 51.619 15.1491 51.619H32.2005C34.4464 51.6164 36.6423 52.2812 38.5096 53.5291C38.673 53.6381 38.8563 53.7138 39.049 53.752C39.2417 53.7902 39.4401 53.79 39.6327 53.7516C39.8253 53.7131 40.0085 53.637 40.1718 53.5278C40.335 53.4185 40.4752 53.2782 40.5842 53.1147C40.6932 52.9513 40.769 52.768 40.8071 52.5753C40.8453 52.3826 40.8452 52.1843 40.8067 51.9916C40.7682 51.799 40.6922 51.6158 40.5829 51.4525C40.4736 51.2893 40.3333 51.1492 40.1699 51.0401C37.8108 49.4647 35.0372 48.6251 32.2005 48.6275Z" fill="black"/>
<path d="M74.9776 48.6275H57.9261C55.0895 48.6253 52.3159 49.4649 49.9568 51.0401C49.7934 51.1492 49.653 51.2893 49.5438 51.4526C49.4345 51.6158 49.3585 51.799 49.32 51.9916C49.2815 52.1843 49.2814 52.3826 49.3195 52.5753C49.3577 52.768 49.4335 52.9513 49.5425 53.1148C49.6515 53.2782 49.7916 53.4185 49.9549 53.5278C50.1182 53.6371 50.3013 53.7131 50.494 53.7516C50.6866 53.7901 50.885 53.7902 51.0777 53.752C51.2704 53.7138 51.4537 53.6381 51.6171 53.5291C53.4846 52.2817 55.6804 51.6169 57.9261 51.619H74.9776C75.3743 51.619 75.7548 51.4614 76.0353 51.1809C76.3158 50.9004 76.4734 50.52 76.4734 50.1233C76.4734 49.7266 76.3158 49.3461 76.0353 49.0656C75.7548 48.7851 75.3743 48.6275 74.9776 48.6275Z" fill="black"/>
</svg>
