<svg width="96" height="96" viewBox="0 0 96 96" fill="none" xmlns="http://www.w3.org/2000/svg">
<g clip-path="url(#clip0)">
<path d="M88.5164 39.3632L88.6687 40.6924H90.0067H94.2276V43.3235H90.0129H88.6608L88.5209 44.6683C88.2029 47.7259 87.3147 51.4602 85.5892 54.7363C82.6384 60.3387 78.0789 63.1815 72.3284 63.1815C67.9995 63.1815 63.1824 60.9312 59.1825 56.7978L59.1825 56.7978C55.8084 53.3114 53.4792 48.9273 52.5816 44.5239L52.3369 43.3235H51.1118H44.616H43.391L43.1463 44.5238C42.2484 48.9275 39.9192 53.3116 36.5453 56.7978L36.5453 56.7978C32.5454 60.9312 27.7283 63.1815 23.3994 63.1815C17.649 63.1815 13.0895 60.3387 10.1386 54.7363C8.41314 51.4602 7.52495 47.7257 7.20689 44.6683L7.06699 43.3235H5.71494H1.5V40.6924H5.72095H7.05893L7.2112 39.3632C7.41704 37.5663 7.88382 35.8341 8.83616 34.3227C9.77297 32.836 11.2304 31.481 13.5614 30.4922L13.6768 30.4474C17.1071 29.2393 20.7222 28.5894 24.4172 28.5013L67.5691 28.5983L67.6267 28.5984L67.6842 28.5941C72.6349 28.2242 77.5055 28.8466 82.0509 30.4475L82.1663 30.4921C84.4972 31.4808 85.9547 32.8359 86.8915 34.3226C87.8438 35.8341 88.3106 37.5663 88.5164 39.3632ZM50.7608 40.6924H52.1177L52.2533 39.3423C52.4166 37.7157 52.8525 36.2491 53.5277 34.9988C53.8021 34.4908 54.1224 34.012 54.484 33.5603L56.4352 31.1229H53.313H42.4143H39.2914L41.2434 33.5605C41.6048 34.0118 41.9251 34.4907 42.1996 34.9988C42.875 36.249 43.3108 37.7155 43.4742 39.3423L43.6097 40.6924H44.9667H50.7608Z" stroke="black" stroke-width="3"/>
<path d="M4.8081 66.6268L3.14205 64.5904L5.17813 62.9246C5.72453 63.626 6.29947 64.2894 6.90176 64.9138L4.8081 66.6268Z" stroke="black" stroke-width="3"/>
<path d="M91.8571 66.6269L89.2326 64.4796C89.8189 63.8415 90.3781 63.1652 90.9087 62.4515L93.5231 64.5905L91.8571 66.6269Z" stroke="black" stroke-width="3"/>
<path d="M19.2315 35.2688C18.8741 34.9105 18.2929 34.9105 17.9354 35.2688L14.2688 38.9354C13.9104 39.2939 13.9104 39.8732 14.2688 40.2315C14.4476 40.4103 14.6823 40.5001 14.9169 40.5001C15.1516 40.5001 15.3862 40.4103 15.565 40.2315L19.2315 36.565C19.59 36.2066 19.59 35.6272 19.2315 35.2688Z" fill="black"/>
<path d="M65.2315 35.2688C64.8741 34.9105 64.2929 34.9105 63.9354 35.2688L60.2688 38.9354C59.9104 39.2939 59.9104 39.8732 60.2688 40.2315C60.4476 40.4103 60.6823 40.5001 60.9169 40.5001C61.1516 40.5001 61.3862 40.4103 61.565 40.2315L65.2315 36.565C65.59 36.2066 65.59 35.6272 65.2315 35.2688Z" fill="black"/>
<path d="M25.6486 40.7687C25.2911 40.4103 24.71 40.4103 24.3525 40.7687L20.6858 44.4353C20.3274 44.7938 20.3274 45.3731 20.6858 45.7314C20.8646 45.9102 21.0993 46 21.3339 46C21.5686 46 21.8032 45.9102 21.982 45.7314L25.6485 42.0649C26.007 41.7065 26.007 41.1271 25.6486 40.7687Z" fill="black"/>
<path d="M71.6486 40.7687C71.2911 40.4103 70.71 40.4103 70.3525 40.7687L66.6858 44.4353C66.3274 44.7938 66.3274 45.3731 66.6858 45.7314C66.8646 45.9102 67.0993 46 67.3339 46C67.5686 46 67.8032 45.9102 67.982 45.7314L71.6485 42.0649C72.007 41.7065 72.007 41.1271 71.6486 40.7687Z" fill="black"/>
<path d="M24.7315 35.2688C24.374 34.9104 23.7928 34.9104 23.4353 35.2688L14.2688 44.4353C13.9104 44.7938 13.9104 45.3731 14.2688 45.7315C14.4476 45.9102 14.6823 46 14.9169 46C15.1516 46 15.3862 45.9102 15.565 45.7315L24.7315 36.565C25.0899 36.2066 25.0899 35.6272 24.7315 35.2688Z" fill="black"/>
<path d="M70.7315 35.2688C70.374 34.9104 69.7928 34.9104 69.4353 35.2688L60.2688 44.4353C59.9104 44.7938 59.9104 45.3731 60.2688 45.7315C60.4476 45.9102 60.6823 46 60.9169 46C61.1516 46 61.3862 45.9102 61.565 45.7315L70.7315 36.565C71.0899 36.2066 71.0899 35.6272 70.7315 35.2688Z" fill="black"/>
</g>
<defs>
<clipPath id="clip0">
<rect width="95.7276" height="95.7276" fill="white"/>
</clipPath>
</defs>
</svg>
