<svg width="96" height="96" viewBox="0 0 96 96" fill="none" xmlns="http://www.w3.org/2000/svg">
<path d="M91.4393 20.2424C91.0426 20.2424 90.6622 20.4 90.3817 20.6805C90.1012 20.961 89.9436 21.3415 89.9436 21.7382V75.585H81.8217C72.1963 75.5858 62.6021 76.6787 53.2231 78.8427C52.6348 78.9773 52.0195 78.9302 51.4586 78.7074C50.8977 78.4846 50.4176 78.0968 50.082 77.5952C55.4223 74.3263 61.5616 72.5954 67.823 72.5935H85.4564C85.8531 72.5935 86.2335 72.4359 86.514 72.1554C86.7945 71.8749 86.9521 71.4944 86.9521 71.0977V60.6275C86.9521 60.2308 86.7945 59.8504 86.514 59.5699C86.2335 59.2894 85.8531 59.1318 85.4564 59.1318C85.0597 59.1318 84.6792 59.2894 84.3987 59.5699C84.1182 59.8504 83.9606 60.2308 83.9606 60.6275V69.602H67.823C61.4217 69.5959 55.1284 71.2513 49.5585 74.4063V33.7041C49.5585 33.3074 49.4009 32.927 49.1204 32.6465C48.8399 32.366 48.4595 32.2084 48.0628 32.2084C47.6661 32.2084 47.2856 32.366 47.0051 32.6465C46.7246 32.927 46.567 33.3074 46.567 33.7041V74.4048C40.9971 71.2501 34.7037 69.5952 28.3025 69.602H12.1649V15.7552H35.1994C38.2149 15.7572 41.1063 16.9565 43.238 19.0895C45.3696 21.2226 46.567 24.1147 46.567 27.1303C46.567 27.527 46.7246 27.9075 47.0051 28.188C47.2856 28.4685 47.6661 28.6261 48.0628 28.6261C48.4595 28.6261 48.8399 28.4685 49.1204 28.188C49.4009 27.9075 49.5585 27.527 49.5585 27.1303C49.5585 24.1147 50.7559 21.2226 52.8876 19.0895C55.0192 16.9565 57.9106 15.7572 60.9262 15.7552H83.9606V54.6445C83.9606 55.0412 84.1182 55.4217 84.3987 55.7022C84.6792 55.9827 85.0597 56.1403 85.4564 56.1403C85.8531 56.1403 86.2335 55.9827 86.514 55.7022C86.7945 55.4217 86.9521 55.0412 86.9521 54.6445V14.2594C86.9521 13.8627 86.7945 13.4823 86.514 13.2018C86.2335 12.9213 85.8531 12.7637 85.4564 12.7637H60.9262C58.2526 12.7657 55.6325 13.513 53.3602 14.9219C51.0879 16.3307 49.2534 18.3452 48.0628 20.739C46.8721 18.3452 45.0376 16.3307 42.7653 14.9219C40.493 13.513 37.873 12.7657 35.1994 12.7637H10.6692C10.2725 12.7637 9.89201 12.9213 9.6115 13.2018C9.33099 13.4823 9.17341 13.8627 9.17341 14.2594V71.0977C9.17341 71.4944 9.33099 71.8749 9.6115 72.1554C9.89201 72.4359 10.2725 72.5935 10.6692 72.5935H28.3025C34.5649 72.5948 40.7053 74.3257 46.0465 77.5952C45.7097 78.0956 45.2295 78.4824 44.669 78.705C44.1085 78.9277 43.4937 78.9756 42.9054 78.8427C33.5255 76.6784 23.9302 75.5854 14.3038 75.585H6.18192V21.7382C6.18192 21.3415 6.02433 20.961 5.74382 20.6805C5.46332 20.4 5.08287 20.2424 4.68617 20.2424C4.28948 20.2424 3.90903 20.4 3.62852 20.6805C3.34802 20.961 3.19043 21.3415 3.19043 21.7382V77.0807C3.19043 77.4774 3.34802 77.8578 3.62852 78.1384C3.90903 78.4189 4.28948 78.5764 4.68617 78.5764H14.3038C23.7027 78.5779 33.071 79.6452 42.2294 81.7579C43.2823 82.001 44.3815 81.9529 45.4091 81.6188C46.4368 81.2846 47.3541 80.6771 48.0628 79.8613C48.7712 80.6774 49.6885 81.2851 50.7162 81.6192C51.7439 81.9534 52.8433 82.0013 53.8962 81.7579C63.0546 79.6456 72.4229 78.5783 81.8217 78.5764H91.4393C91.836 78.5764 92.2165 78.4189 92.497 78.1384C92.7775 77.8578 92.9351 77.4774 92.9351 77.0807V21.7382C92.9351 21.3415 92.7775 20.961 92.497 20.6805C92.2165 20.4 91.836 20.2424 91.4393 20.2424Z" fill="black"/>
<path d="M43.1624 25.6465C40.8055 24.0726 38.0347 23.2329 35.2006 23.2339H18.1491C17.7524 23.2339 17.3719 23.3915 17.0914 23.672C16.8109 23.9525 16.6533 24.3329 16.6533 24.7296C16.6533 25.1263 16.8109 25.5068 17.0914 25.7873C17.3719 26.0678 17.7524 26.2254 18.1491 26.2254H35.2006C37.4464 26.2228 39.6423 26.8876 41.5096 28.1354C41.8397 28.3556 42.2436 28.4356 42.6327 28.3579C43.0218 28.2802 43.364 28.0512 43.5842 27.7211C43.8044 27.3911 43.8844 26.9871 43.8067 26.598C43.729 26.209 43.4999 25.8667 43.1699 25.6465H43.1624Z" fill="black"/>
<path d="M77.9776 23.2339H60.9261C58.0895 23.2316 55.3159 24.0713 52.9568 25.6465C52.7934 25.7555 52.653 25.8957 52.5438 26.0589C52.4345 26.2222 52.3585 26.4054 52.32 26.598C52.2815 26.7907 52.2814 26.989 52.3195 27.1817C52.3577 27.3744 52.4335 27.5577 52.5425 27.7211C52.6515 27.8846 52.7916 28.0249 52.9549 28.1342C53.1182 28.2434 53.3013 28.3195 53.494 28.358C53.6866 28.3964 53.885 28.3966 54.0777 28.3584C54.2704 28.3202 54.4537 28.2445 54.6171 28.1354C56.4846 26.888 58.6804 26.2233 60.9261 26.2254H77.9776C78.3743 26.2254 78.7548 26.0678 79.0353 25.7873C79.3158 25.5068 79.4734 25.1263 79.4734 24.7296C79.4734 24.3329 79.3158 23.9525 79.0353 23.672C78.7548 23.3915 78.3743 23.2339 77.9776 23.2339Z" fill="black"/>
<path d="M43.1624 33.1253C40.8055 31.5513 38.0347 30.7117 35.2006 30.7126H18.1491C17.7524 30.7126 17.3719 30.8702 17.0914 31.1507C16.8109 31.4312 16.6533 31.8117 16.6533 32.2084C16.6533 32.6051 16.8109 32.9855 17.0914 33.266C17.3719 33.5465 17.7524 33.7041 18.1491 33.7041H35.2006C37.4464 33.7015 39.6423 34.3664 41.5096 35.6142C41.8397 35.8343 42.2436 35.9144 42.6327 35.8367C43.0218 35.759 43.364 35.5299 43.5842 35.1998C43.8044 34.8698 43.8844 34.4658 43.8067 34.0767C43.729 33.6877 43.4999 33.3454 43.1699 33.1253H43.1624Z" fill="black"/>
<path d="M77.9776 30.7126H60.9261C58.0895 30.7104 55.3159 31.55 52.9568 33.1253C52.7934 33.2343 52.653 33.3744 52.5438 33.5377C52.4345 33.7009 52.3585 33.8841 52.32 34.0767C52.2815 34.2694 52.2814 34.4677 52.3195 34.6604C52.3577 34.8531 52.4335 35.0364 52.5425 35.1998C52.6515 35.3633 52.7916 35.5036 52.9549 35.6129C53.1182 35.7222 53.3013 35.7982 53.494 35.8367C53.6866 35.8751 53.885 35.8753 54.0777 35.8371C54.2704 35.7989 54.4537 35.7232 54.6171 35.6142C56.4846 34.3668 58.6804 33.702 60.9261 33.7041H77.9776C78.3743 33.7041 78.7548 33.5465 79.0353 33.266C79.3158 32.9855 79.4734 32.6051 79.4734 32.2084C79.4734 31.8117 79.3158 31.4312 79.0353 31.1507C78.7548 30.8702 78.3743 30.7126 77.9776 30.7126Z" fill="black"/>
<path d="M43.1624 40.604C40.8055 39.03 38.0347 38.1904 35.2006 38.1913H18.1491C17.7524 38.1913 17.3719 38.3489 17.0914 38.6294C16.8109 38.9099 16.6533 39.2904 16.6533 39.6871C16.6533 40.0838 16.8109 40.4642 17.0914 40.7447C17.3719 41.0252 17.7524 41.1828 18.1491 41.1828H35.2006C37.4464 41.1803 39.6423 41.8451 41.5096 43.0929C41.8397 43.3131 42.2436 43.3931 42.6327 43.3154C43.0218 43.2377 43.364 43.0086 43.5842 42.6786C43.8044 42.3485 43.8844 41.9445 43.8067 41.5555C43.729 41.1664 43.4999 40.8241 43.1699 40.604H43.1624Z" fill="black"/>
<path d="M77.9776 38.1913H60.9261C58.0895 38.1891 55.3159 39.0288 52.9568 40.604C52.7934 40.713 52.653 40.8531 52.5438 41.0164C52.4345 41.1796 52.3585 41.3628 52.32 41.5555C52.2815 41.7481 52.2814 41.9464 52.3195 42.1391C52.3577 42.3319 52.4335 42.5151 52.5425 42.6786C52.6515 42.842 52.7916 42.9823 52.9549 43.0916C53.1182 43.2009 53.3013 43.2769 53.494 43.3154C53.6866 43.3539 53.885 43.354 54.0777 43.3158C54.2704 43.2777 54.4537 43.2019 54.6171 43.0929C56.4846 41.8455 58.6804 41.1807 60.9261 41.1828H77.9776C78.3743 41.1828 78.7548 41.0252 79.0353 40.7447C79.3158 40.4642 79.4734 40.0838 79.4734 39.6871C79.4734 39.2904 79.3158 38.9099 79.0353 38.6294C78.7548 38.3489 78.3743 38.1913 77.9776 38.1913Z" fill="black"/>
<path d="M43.1624 48.0827C40.8055 46.5087 38.0347 45.6691 35.2005 45.6701H18.1491C17.7524 45.6701 17.3719 45.8276 17.0914 46.1082C16.8109 46.3887 16.6533 46.7691 16.6533 47.1658C16.6533 47.5625 16.8109 47.943 17.0914 48.2235C17.3719 48.504 17.7524 48.6615 18.1491 48.6615H35.2005C37.4464 48.659 39.6423 49.3238 41.5096 50.5716C41.673 50.6806 41.8563 50.7564 42.049 50.7946C42.2417 50.8327 42.4401 50.8326 42.6327 50.7941C42.8253 50.7556 43.0085 50.6796 43.1718 50.5703C43.335 50.4611 43.4752 50.3207 43.5842 50.1573C43.6932 49.9939 43.769 49.8106 43.8071 49.6179C43.8453 49.4252 43.8452 49.2268 43.8067 49.0342C43.7682 48.8415 43.6922 48.6584 43.5829 48.4951C43.4736 48.3318 43.3333 48.1917 43.1699 48.0827H43.1624Z" fill="black"/>
<path d="M77.9776 45.6701H60.9261C58.0895 45.6678 55.3159 46.5075 52.9568 48.0827C52.6268 48.3029 52.3977 48.6451 52.32 49.0342C52.2423 49.4232 52.3223 49.8272 52.5425 50.1573C52.7627 50.4873 53.1049 50.7164 53.494 50.7941C53.883 50.8718 54.287 50.7918 54.6171 50.5716C56.4846 49.3242 58.6804 48.6594 60.9261 48.6615H77.9776C78.3743 48.6615 78.7548 48.504 79.0353 48.2235C79.3158 47.943 79.4734 47.5625 79.4734 47.1658C79.4734 46.7691 79.3158 46.3887 79.0353 46.1082C78.7548 45.8276 78.3743 45.6701 77.9776 45.6701Z" fill="black"/>
<path d="M43.1624 55.5614C40.8055 53.9874 38.0347 53.1478 35.2006 53.1488H18.1491C17.7524 53.1488 17.3719 53.3064 17.0914 53.5869C16.8109 53.8674 16.6533 54.2478 16.6533 54.6445C16.6533 55.0412 16.8109 55.4217 17.0914 55.7022C17.3719 55.9827 17.7524 56.1403 18.1491 56.1403H35.2006C37.4464 56.1377 39.6423 56.8025 41.5096 58.0503C41.8397 58.2705 42.2436 58.3506 42.6327 58.2729C43.0218 58.1951 43.364 57.9661 43.5842 57.636C43.8044 57.306 43.8844 56.902 43.8067 56.5129C43.729 56.1238 43.4999 55.7816 43.1699 55.5614H43.1624Z" fill="black"/>
<path d="M77.9776 53.1488H60.9261C58.0895 53.1465 55.3159 53.9862 52.9568 55.5614C52.7934 55.6704 52.653 55.8106 52.5438 55.9738C52.4345 56.1371 52.3585 56.3203 52.32 56.5129C52.2815 56.7056 52.2814 56.9039 52.3195 57.0966C52.3577 57.2893 52.4335 57.4726 52.5425 57.636C52.7627 57.9661 53.1049 58.1952 53.494 58.2729C53.6866 58.3113 53.885 58.3115 54.0777 58.2733C54.2704 58.2351 54.4537 58.1594 54.6171 58.0504C56.4846 56.8029 58.6804 56.1382 60.9261 56.1403H77.9776C78.3743 56.1403 78.7548 55.9827 79.0353 55.7022C79.3158 55.4217 79.4734 55.0412 79.4734 54.6445C79.4734 54.2478 79.3158 53.8674 79.0353 53.5869C78.7548 53.3064 78.3743 53.1488 77.9776 53.1488Z" fill="black"/>
<path d="M35.2005 60.6275H18.1491C17.7524 60.6275 17.3719 60.7851 17.0914 61.0656C16.8109 61.3461 16.6533 61.7266 16.6533 62.1232C16.6533 62.5199 16.8109 62.9004 17.0914 63.1809C17.3719 63.4614 17.7524 63.619 18.1491 63.619H35.2005C37.4464 63.6164 39.6423 64.2812 41.5096 65.5291C41.673 65.6381 41.8563 65.7138 42.049 65.752C42.2417 65.7902 42.4401 65.79 42.6327 65.7516C42.8253 65.7131 43.0085 65.637 43.1718 65.5278C43.335 65.4185 43.4752 65.2782 43.5842 65.1147C43.6932 64.9513 43.769 64.768 43.8071 64.5753C43.8453 64.3826 43.8452 64.1843 43.8067 63.9916C43.7682 63.799 43.6922 63.6158 43.5829 63.4525C43.4736 63.2893 43.3333 63.1492 43.1699 63.0401C40.8108 61.4647 38.0372 60.6251 35.2005 60.6275Z" fill="black"/>
<path d="M77.9776 60.6275H60.9261C58.0895 60.6253 55.3159 61.4649 52.9568 63.0401C52.7934 63.1492 52.653 63.2893 52.5438 63.4526C52.4345 63.6158 52.3585 63.799 52.32 63.9916C52.2815 64.1843 52.2814 64.3826 52.3195 64.5753C52.3577 64.768 52.4335 64.9513 52.5425 65.1148C52.6515 65.2782 52.7916 65.4185 52.9549 65.5278C53.1182 65.6371 53.3013 65.7131 53.494 65.7516C53.6866 65.7901 53.885 65.7902 54.0777 65.752C54.2704 65.7138 54.4537 65.6381 54.6171 65.5291C56.4846 64.2817 58.6804 63.6169 60.9261 63.619H77.9776C78.3743 63.619 78.7548 63.4614 79.0353 63.1809C79.3158 62.9004 79.4734 62.52 79.4734 62.1233C79.4734 61.7266 79.3158 61.3461 79.0353 61.0656C78.7548 60.7851 78.3743 60.6275 77.9776 60.6275Z" fill="black"/>
</svg>
