<svg width="96" height="96" viewBox="0 0 96 96" fill="none" xmlns="http://www.w3.org/2000/svg">
<g clip-path="url(#clip0)">
<path d="M89.3442 0H6.38346C2.86379 0 0 2.86379 0 6.38346V55.8412C0 56.7235 0.714779 57.4366 1.5954 57.4366H94.132C95.0127 57.4366 95.7274 56.7235 95.7274 55.8412V6.38346C95.7276 2.86379 92.8638 0 89.3442 0ZM92.5367 54.2456H3.19098V6.38346C3.19098 4.62204 4.62372 3.19098 6.38346 3.19098H89.3442C91.1039 3.19098 92.5367 4.62204 92.5367 6.38346V54.2456Z" fill="black"/>
<path d="M94.1322 54.2456H1.5954C0.714779 54.2456 0 54.9587 0 55.841V70.1985C0 73.7183 2.86379 76.5821 6.38346 76.5821H89.3442C92.8638 76.5821 95.7276 73.7183 95.7276 70.1987V55.8412C95.7276 54.9589 95.0129 54.2456 94.1322 54.2456ZM92.5367 70.1987C92.5367 71.9601 91.1039 73.3911 89.3442 73.3911H6.38346C4.62372 73.3911 3.19098 71.9601 3.19098 70.1987V57.4366H92.5368V70.1987H92.5367Z" fill="black"/>
<path d="M87.7511 6.38177H7.97821C7.09759 6.38177 6.38281 7.09487 6.38281 7.97717V55.841C6.38281 56.7233 7.09759 57.4364 7.97821 57.4364H87.7513C88.6319 57.4364 89.3467 56.7233 89.3467 55.841V7.97717C89.3467 7.09506 88.6319 6.38177 87.7511 6.38177ZM86.1557 54.2456H9.57361V9.57276H86.1557V54.2456Z" fill="black"/>
<path d="M68.6083 86.1548H27.1201C24.4827 86.1548 22.3369 88.3007 22.3369 90.9381V94.1322C22.3369 95.0145 23.0517 95.7276 23.9323 95.7276H71.7961C72.6768 95.7276 73.3915 95.0145 73.3915 94.1322V90.9381C73.3915 88.3007 71.2457 86.1548 68.6083 86.1548ZM70.2007 92.5366H25.5277V90.9381C25.5277 90.0589 26.2425 89.3458 27.1199 89.3458H68.6083C69.4858 89.3458 70.2005 90.0589 70.2005 90.9381V92.5366H70.2007Z" fill="black"/>
<path d="M65.4142 86.1548C60.1204 86.1548 57.4369 82.3975 57.4369 74.9867C57.4369 74.1044 56.7221 73.3913 55.8415 73.3913H39.8869C39.0063 73.3913 38.2915 74.1044 38.2915 74.9867C38.2915 82.3975 35.608 86.1548 30.3141 86.1548C29.4335 86.1548 28.7188 86.8679 28.7188 87.7502C28.7188 88.6325 29.4335 89.3456 30.3141 89.3456H65.4142C66.2948 89.3456 67.0096 88.6325 67.0096 87.7502C67.0096 86.8679 66.2948 86.1548 65.4142 86.1548ZM38.0855 86.1548C40.0496 83.9802 41.2062 80.7382 41.4391 76.5821H54.2906C54.5218 80.7382 55.6786 83.9802 57.6442 86.1548H38.0855Z" fill="black"/>
<path d="M21.8693 13.2312C21.2471 12.6074 20.2356 12.6074 19.6134 13.2312L13.2316 19.6129C12.6077 20.2369 12.6077 21.2452 13.2316 21.8689C13.5427 22.18 13.9512 22.3363 14.3596 22.3363C14.7681 22.3363 15.1764 22.18 15.4876 21.8689L21.8693 15.4871C22.4933 14.8634 22.4933 13.8549 21.8693 13.2312Z" fill="black"/>
<path d="M33.0375 22.8039C32.4153 22.18 31.4038 22.18 30.7815 22.8039L24.3996 29.1857C23.7757 29.8096 23.7757 30.8179 24.3996 31.4417C24.7107 31.7528 25.1192 31.9091 25.5276 31.9091C25.9361 31.9091 26.3444 31.7528 26.6555 31.4417L33.0373 25.0599C33.6612 24.4362 33.6612 23.4277 33.0375 22.8039Z" fill="black"/>
<path d="M31.4421 13.2311C30.8199 12.6072 29.8084 12.6072 29.1862 13.2311L13.2316 29.1857C12.6077 29.8096 12.6077 30.8179 13.2316 31.4416C13.5427 31.7528 13.9512 31.9091 14.3596 31.9091C14.7681 31.9091 15.1764 31.7528 15.4876 31.4416L31.4421 15.4871C32.066 14.8634 32.066 13.8549 31.4421 13.2311Z" fill="black"/>
</g>
<defs>
<clipPath id="clip0">
<rect width="95.7276" height="95.7276" fill="white"/>
</clipPath>
</defs>
</svg>
