<svg width="96" height="96" viewBox="0 0 96 96" fill="none" xmlns="http://www.w3.org/2000/svg">
<g clip-path="url(#clip0)">
<path d="M91.4266 44.906C93.4904 41.7642 94.5731 38.1428 94.5731 34.3354C94.5731 29.2799 92.6342 24.499 89.1135 20.8729C86.1696 17.8411 82.3869 15.8887 78.276 15.2418C78.4553 14.3898 78.5456 13.5182 78.5456 12.6332C78.5458 5.66738 72.8785 0 65.9124 0C58.9462 0 53.279 5.66738 53.279 12.6332C53.279 14.1251 53.5368 15.5812 54.0369 16.953C44.3518 17.5208 36.6457 25.58 36.6457 35.405C36.6457 39.9867 38.2896 44.2867 41.3048 47.6697C39.9599 50.0622 39.2552 52.7485 39.2552 55.5233C39.2552 64.3858 46.4653 71.5959 55.328 71.5959C59.2249 71.5959 62.9353 70.1704 65.8128 67.6957V91.9883H45.9941V85.065C48.1968 84.0653 49.7335 81.8466 49.7335 79.2745C49.7335 75.7692 46.8819 72.9175 43.3766 72.9175H6.35691C2.85164 72.9175 0 75.7692 0 79.2745C0 81.8468 1.53669 84.0655 3.73936 85.065V93.858C3.73936 94.8906 4.5766 95.7276 5.60904 95.7276H13.0878C14.1202 95.7276 14.9574 94.8906 14.9574 93.858V85.6314H34.7761V91.9883H32.9999C31.9674 91.9883 31.1302 92.8253 31.1302 93.858C31.1302 94.8906 31.9674 95.7276 32.9999 95.7276H76.096C77.1284 95.7276 77.9657 94.8906 77.9657 93.858C77.9657 92.8253 77.1284 91.9883 76.096 91.9883H69.5521V67.7567C72.3851 70.1936 76.0367 71.596 79.8853 71.596C88.621 71.596 95.7276 64.4892 95.7276 55.7537C95.7276 51.6983 94.178 47.8313 91.4266 44.906ZM11.2181 91.9883H7.47872V85.6314H11.2181V91.9883ZM42.2548 91.9883H38.5154V85.6314H42.2548V91.9883ZM43.3766 81.892H36.6457H13.0878H6.35691C4.91352 81.892 3.73936 80.7178 3.73936 79.2745C3.73936 77.8311 4.91352 76.6569 6.35691 76.6569H43.3766C44.82 76.6569 45.9941 77.8311 45.9941 79.2745C45.9941 80.7178 44.82 81.892 43.3766 81.892ZM79.8853 67.8567C75.6611 67.8567 71.7464 65.6443 69.5521 62.0521V53.3422C69.5674 53.328 69.5833 53.3152 69.5983 53.3005L80.2241 42.6747C80.9542 41.9446 80.9542 40.7607 80.2241 40.0304C79.4939 39.3005 78.3104 39.3003 77.5798 40.0304L69.5521 48.0583V30.6134C69.5521 29.5808 68.7149 28.7437 67.6824 28.7437C66.65 28.7437 65.8128 29.5808 65.8128 30.6134V35.4652L64.323 33.9755C63.5931 33.2453 62.4096 33.2453 61.6787 33.9755C60.9486 34.7056 60.9486 35.8895 61.6787 36.6196L65.8128 40.7534V52.7446L60.6973 47.6294C60.6956 47.6277 60.6939 47.6258 60.6923 47.6241L56.1738 43.1057C55.4435 42.3756 54.26 42.3756 53.5295 43.1057C52.7994 43.8358 52.7994 45.0197 53.5295 45.7498L56.3067 48.5268L51.2309 51.3014C50.3249 51.7967 49.9919 52.9327 50.4872 53.8388C50.8267 54.4602 51.4678 54.8121 52.1293 54.8121C52.4324 54.8121 52.7399 54.7383 53.0245 54.5825L59.0621 51.2822L65.8128 58.033V62.0124C63.5691 65.6286 59.5942 67.8565 55.328 67.8565C48.5274 67.8565 42.9946 62.3239 42.9946 55.5233C42.9946 52.9948 43.7569 50.5627 45.1988 48.4904C45.7253 47.7339 45.6219 46.7063 44.955 46.0699C42.0082 43.2575 40.3851 39.4699 40.3851 35.405C40.3851 27.2749 46.9995 20.6605 55.1296 20.6605C55.7185 20.6605 56.3142 20.6987 56.9503 20.777C57.689 20.8675 58.4096 20.513 58.7878 19.8734C59.1662 19.2336 59.13 18.4306 58.6951 17.8278C57.5981 16.3068 57.0182 14.5106 57.0182 12.6336C57.0182 7.72945 61.008 3.73973 65.9122 3.73973C70.8162 3.73973 74.8061 7.72945 74.8061 12.6336C74.8061 13.8519 74.5634 15.033 74.0852 16.1445C73.8406 16.7127 73.893 17.3648 74.2246 17.8867C74.5563 18.4085 75.1247 18.7327 75.743 18.7523C84.205 19.0221 90.8336 25.867 90.8336 34.3354C90.8336 37.8678 89.6777 41.2014 87.4913 43.9764C86.8704 44.7645 86.982 45.9021 87.7445 46.5543C90.4417 48.8609 91.9883 52.214 91.9883 55.7535C91.9883 62.4273 86.5589 67.8567 79.8853 67.8567Z" fill="black"/>
<path d="M85.08 92.5361C84.7325 92.1883 84.2501 91.9883 83.7584 91.9883C83.2664 91.9883 82.7841 92.1883 82.4365 92.5361C82.0887 92.8839 81.8887 93.3662 81.8887 93.858C81.8887 94.3497 82.0885 94.8321 82.4365 95.1798C82.7841 95.5276 83.2664 95.7276 83.7584 95.7276C84.2501 95.7276 84.7325 95.5276 85.08 95.1798C85.4278 94.8321 85.628 94.3497 85.628 93.858C85.628 93.3662 85.428 92.8839 85.08 92.5361Z" fill="black"/>
<path d="M19.5698 32.1559C16.7925 31.3205 13.9015 32.1767 12.0086 34.1275C11.4754 33.5767 10.8543 33.1059 10.1597 32.7325C8.39282 31.7827 6.3616 31.5782 4.44087 32.1559C3.45219 32.4534 2.89166 33.4961 3.18912 34.485C3.4864 35.4735 4.5295 36.0336 5.51818 35.7365C6.48256 35.4465 7.50229 35.5492 8.38926 36.0259C9.27643 36.5027 9.92465 37.2964 10.2148 38.2608C10.4525 39.0511 11.1801 39.592 12.0052 39.592C12.8303 39.592 13.558 39.0511 13.7956 38.261C14.3947 36.2703 16.5016 35.1379 18.4925 35.7367C19.4813 36.0342 20.5239 35.4738 20.8215 34.485C21.119 33.4961 20.5585 32.4534 19.5698 32.1559Z" fill="black"/>
<path d="M31.4964 18.3651C29.576 17.7874 27.5448 17.9919 25.7777 18.9415C25.0845 19.3142 24.4645 19.784 23.932 20.3333C23.3995 19.784 22.7795 19.3142 22.0862 18.9415C20.3192 17.9917 18.2876 17.7872 16.3676 18.3651C15.3788 18.6626 14.8184 19.7053 15.1159 20.6944C15.4134 21.6832 16.4568 22.2432 17.445 21.9461C18.4088 21.6561 19.4287 21.7586 20.3158 22.2355C21.203 22.7123 21.8514 23.506 22.1416 24.4706C22.3792 25.2607 23.1069 25.8016 23.932 25.8016C24.7571 25.8016 25.4848 25.2607 25.7224 24.4706C26.0126 23.5062 26.661 22.7125 27.5481 22.2355C28.4351 21.7588 29.4547 21.6561 30.419 21.9461C31.4077 22.2434 32.4503 21.6831 32.7481 20.6944C33.0456 19.7055 32.4852 18.6628 31.4964 18.3651Z" fill="black"/>
<path d="M55.1299 24.4622H55.1153C54.0829 24.4622 53.2529 25.2992 53.2529 26.3318C53.2529 27.3645 54.0975 28.2015 55.1299 28.2015C56.1623 28.2015 56.9996 27.3645 56.9996 26.3318C56.9996 25.2992 56.1625 24.4622 55.1299 24.4622Z" fill="black"/>
<path d="M49.8509 27.7926C49.1036 27.0799 47.9199 27.1085 47.2076 27.8558C45.2593 29.8996 44.1865 32.5807 44.1865 35.405C44.1865 36.4376 45.0238 37.2747 46.0562 37.2747C47.0886 37.2747 47.9259 36.4376 47.9259 35.405C47.9259 33.5458 48.6319 31.781 49.9143 30.436C50.6268 29.6885 50.5984 28.505 49.8509 27.7926Z" fill="black"/>
</g>
<defs>
<clipPath id="clip0">
<rect width="95.7276" height="95.7276" fill="white"/>
</clipPath>
</defs>
</svg>
